<svg width="24" height="24" viewBox="0 0 24 24" fill="none" xmlns="http://www.w3.org/2000/svg">
<g clip-path="url(#clip0_140_191)">
<path d="M11.9845 -0.013672C11.7196 -0.00953155 11.4672 0.0995285 11.2826 0.289572C11.0981 0.479616 10.9965 0.735117 11.0001 1V2C10.9982 2.13251 11.0227 2.26407 11.0721 2.38704C11.1215 2.51001 11.1949 2.62193 11.2879 2.7163C11.381 2.81067 11.4918 2.88561 11.6141 2.93676C11.7364 2.9879 11.8676 3.01424 12.0001 3.01424C12.1326 3.01424 12.2638 2.9879 12.3861 2.93676C12.5083 2.88561 12.6192 2.81067 12.7122 2.7163C12.8053 2.62193 12.8786 2.51001 12.9281 2.38704C12.9775 2.26407 13.002 2.13251 13.0001 2V1C13.0019 0.86621 12.9769 0.733414 12.9265 0.609473C12.876 0.485533 12.8013 0.372969 12.7066 0.278448C12.6119 0.183927 12.4992 0.10937 12.3751 0.0591931C12.2511 0.00901587 12.1182 -0.0157616 11.9845 -0.013672ZM4.21102 3.21094C4.01184 3.21098 3.81721 3.27049 3.65208 3.38185C3.48694 3.49321 3.35881 3.65134 3.28411 3.83598C3.20942 4.02062 3.19156 4.22336 3.23282 4.41822C3.27408 4.61307 3.37258 4.79117 3.51571 4.92969L4.22274 5.63672C4.31488 5.73269 4.42525 5.80931 4.54738 5.86209C4.66951 5.91488 4.80094 5.94276 4.93398 5.94411C5.06702 5.94547 5.19899 5.92026 5.32217 5.86997C5.44534 5.81968 5.55725 5.74532 5.65133 5.65124C5.7454 5.55717 5.81977 5.44526 5.87005 5.32209C5.92034 5.19891 5.94555 5.06694 5.9442 4.9339C5.94284 4.80086 5.91496 4.66943 5.86218 4.5473C5.80939 4.42517 5.73277 4.3148 5.6368 4.22266L4.92977 3.51562C4.83652 3.41924 4.72483 3.3426 4.60135 3.29025C4.47788 3.23791 4.34513 3.21094 4.21102 3.21094ZM19.7579 3.21289C19.4981 3.22063 19.2515 3.32921 19.0704 3.51562L18.3634 4.22266C18.2674 4.3148 18.1908 4.42517 18.138 4.5473C18.0852 4.66943 18.0573 4.80086 18.056 4.9339C18.0546 5.06694 18.0798 5.19891 18.1301 5.32208C18.1804 5.44526 18.2548 5.55716 18.3488 5.65124C18.4429 5.74532 18.5548 5.81968 18.678 5.86997C18.8012 5.92026 18.9331 5.94546 19.0662 5.94411C19.1992 5.94276 19.3307 5.91487 19.4528 5.86209C19.5749 5.80931 19.6853 5.73269 19.7774 5.63672L20.4845 4.92969C20.629 4.78922 20.7277 4.60838 20.7676 4.41086C20.8076 4.21334 20.7869 4.00836 20.7084 3.82277C20.6298 3.63719 20.4971 3.47966 20.3275 3.37083C20.1579 3.262 19.9593 3.20695 19.7579 3.21289ZM12.0001 5C8.14008 5 5.00008 8.14 5.00008 12C5.00008 14.785 6.63908 17.1885 9.00008 18.3145V21C9.00008 22.103 9.89708 23 11.0001 23H13.0001C14.1031 23 15.0001 22.103 15.0001 21V18.3145C17.3611 17.1885 19.0001 14.785 19.0001 12C19.0001 8.14 15.8601 5 12.0001 5ZM1.00008 11C0.867571 10.9981 0.736007 11.0226 0.613039 11.072C0.490071 11.1214 0.37815 11.1948 0.28378 11.2878C0.189411 11.3809 0.114474 11.4918 0.0633268 11.614C0.012179 11.7363 -0.0141602 11.8675 -0.0141602 12C-0.0141602 12.1325 0.012179 12.2637 0.0633268 12.386C0.114474 12.5082 0.189411 12.6191 0.28378 12.7122C0.37815 12.8052 0.490071 12.8786 0.613039 12.928C0.736007 12.9774 0.867571 13.0019 1.00008 13H2.00008C2.13259 13.0019 2.26416 12.9774 2.38713 12.928C2.51009 12.8786 2.62201 12.8052 2.71638 12.7122C2.81075 12.6191 2.88569 12.5082 2.93684 12.386C2.98799 12.2637 3.01432 12.1325 3.01432 12C3.01432 11.8675 2.98799 11.7363 2.93684 11.614C2.88569 11.4918 2.81075 11.3809 2.71638 11.2878C2.62201 11.1948 2.51009 11.1214 2.38713 11.072C2.26416 11.0226 2.13259 10.9981 2.00008 11H1.00008ZM22.0001 11C21.8676 10.9981 21.736 11.0226 21.613 11.072C21.4901 11.1214 21.3781 11.1948 21.2838 11.2878C21.1894 11.3809 21.1145 11.4918 21.0633 11.614C21.0122 11.7363 20.9858 11.8675 20.9858 12C20.9858 12.1325 21.0122 12.2637 21.0633 12.386C21.1145 12.5082 21.1894 12.6191 21.2838 12.7122C21.3781 12.8052 21.4901 12.8786 21.613 12.928C21.736 12.9774 21.8676 13.0019 22.0001 13H23.0001C23.1326 13.0019 23.2642 12.9774 23.3871 12.928C23.5101 12.8786 23.622 12.8052 23.7164 12.7122C23.8108 12.6191 23.8857 12.5082 23.9368 12.386C23.988 12.2637 24.0143 12.1325 24.0143 12C24.0143 11.8675 23.988 11.7363 23.9368 11.614C23.8857 11.4918 23.8108 11.3809 23.7164 11.2878C23.622 11.1948 23.5101 11.1214 23.3871 11.072C23.2642 11.0226 23.1326 10.9981 23.0001 11H22.0001ZM4.91024 18.0605C4.65044 18.0683 4.40386 18.1769 4.22274 18.3633L3.51571 19.0703C3.41974 19.1625 3.34312 19.2728 3.29033 19.395C3.23755 19.5171 3.20967 19.6485 3.20832 19.7816C3.20696 19.9146 3.23217 20.0466 3.28246 20.1697C3.33275 20.2929 3.40711 20.4048 3.50119 20.4989C3.59526 20.593 3.70717 20.6673 3.83034 20.7176C3.95352 20.7679 4.08549 20.7931 4.21853 20.7918C4.35157 20.7904 4.483 20.7625 4.60513 20.7097C4.72726 20.657 4.83762 20.5803 4.92977 20.4844L5.6368 19.7773C5.7813 19.6369 5.88 19.456 5.91996 19.2585C5.95992 19.061 5.93928 18.856 5.86074 18.6704C5.78219 18.4848 5.64942 18.3273 5.47981 18.2185C5.3102 18.1097 5.11167 18.0546 4.91024 18.0605ZM19.0606 18.0605C18.8617 18.0606 18.6673 18.12 18.5023 18.2311C18.3373 18.3422 18.2092 18.5 18.1343 18.6843C18.0594 18.8686 18.0413 19.0711 18.0821 19.2658C18.1229 19.4605 18.2208 19.6386 18.3634 19.7773L19.0704 20.4844C19.1625 20.5803 19.2729 20.657 19.395 20.7097C19.5172 20.7625 19.6486 20.7904 19.7816 20.7918C19.9147 20.7931 20.0466 20.7679 20.1698 20.7176C20.293 20.6673 20.4049 20.593 20.499 20.4989C20.593 20.4048 20.6674 20.2929 20.7177 20.1697C20.768 20.0466 20.7932 19.9146 20.7918 19.7816C20.7905 19.6485 20.7626 19.5171 20.7098 19.395C20.657 19.2728 20.5804 19.1625 20.4845 19.0703L19.7774 18.3633C19.6842 18.2675 19.5728 18.1913 19.4497 18.1393C19.3266 18.0873 19.1943 18.0606 19.0606 18.0605Z" fill="white"/>
</g>
<defs>
<clipPath id="clip0_140_191">
<rect width="24" height="24" fill="white"/>
</clipPath>
</defs>
</svg>
