<svg width="24" height="24" viewBox="0 0 24 24" fill="none" xmlns="http://www.w3.org/2000/svg">
<path d="M18 3H6C4.346 3 3 4.346 3 6V18C3 19.654 4.346 21 6 21H18C19.654 21 21 19.654 21 18V6C21 4.346 19.654 3 18 3ZM13.005 18.279C12.825 18.797 12.331 19 12 19C11.669 19 11.175 18.797 10.995 18.279C10.815 17.761 10.5 15.968 10.5 14.766C10.5 13.564 11.564 13.5 12 13.5C12.436 13.5 13.5 13.565 13.5 14.766C13.5 15.968 13.184 17.761 13.005 18.279ZM10.75 11.25C10.75 10.56 11.31 10 12 10C12.69 10 13.25 10.56 13.25 11.25C13.25 11.94 12.69 12.5 12 12.5C11.31 12.5 10.75 11.94 10.75 11.25ZM12 8.5C10.346 8.5 9 9.846 9 11.5C9 12.304 9.322 13.032 9.839 13.571C9.662 13.867 9.557 14.218 9.523 14.616C8.602 13.882 8 12.766 8 11.5C8 9.294 9.794 7.5 12 7.5C14.206 7.5 16 9.294 16 11.5C16 12.766 15.398 13.882 14.478 14.616C14.444 14.219 14.338 13.867 14.162 13.571C14.678 13.032 15 12.304 15 11.5C15 9.846 13.654 8.5 12 8.5ZM14.333 17.028C14.385 16.632 14.429 16.224 14.458 15.827C15.968 14.965 17 13.359 17 11.5C17 8.743 14.757 6.5 12 6.5C9.243 6.5 7 8.743 7 11.5C7 13.359 8.032 14.965 9.542 15.827C9.572 16.224 9.615 16.632 9.667 17.028C7.514 16.116 6 13.982 6 11.5C6 8.191 8.691 5.5 12 5.5C15.309 5.5 18 8.191 18 11.5C18 13.982 16.486 16.116 14.333 17.028Z" fill="white"/>
</svg>
