<svg width="24" height="24" viewBox="0 0 24 24" fill="none" xmlns="http://www.w3.org/2000/svg">
<g clip-path="url(#clip0_3_202)">
<path d="M18 4V4C18 4.55228 17.5523 5 17 5V5C16.4477 5 16 4.55228 16 4V4C16 3.45 15.55 3 15 3H9C8.45 3 8 3.45 8 4V4C8 4.55228 7.55228 5 7 5V5C6.44772 5 6 4.55228 6 4V4C6 3.45 5.55 3 5 3C4.45 3 4 3.45 4 4V20C4 20.55 4.45 21 5 21C5.55 21 6 20.55 6 20V20C6 19.4477 6.44772 19 7 19V19C7.55228 19 8 19.4477 8 20V20C8 20.55 8.45 21 9 21H15C15.55 21 16 20.55 16 20V20C16 19.4477 16.4477 19 17 19V19C17.5523 19 18 19.4477 18 20V20C18 20.55 18.45 21 19 21C19.55 21 20 20.55 20 20V4C20 3.45 19.55 3 19 3C18.45 3 18 3.45 18 4ZM8 16C8 16.5523 7.55228 17 7 17V17C6.44772 17 6 16.5523 6 16V16C6 15.4477 6.44772 15 7 15V15C7.55228 15 8 15.4477 8 16V16ZM8 12C8 12.5523 7.55228 13 7 13V13C6.44772 13 6 12.5523 6 12V12C6 11.4477 6.44772 11 7 11V11C7.55228 11 8 11.4477 8 12V12ZM8 8C8 8.55228 7.55228 9 7 9V9C6.44772 9 6 8.55228 6 8V8C6 7.44772 6.44772 7 7 7V7C7.55228 7 8 7.44772 8 8V8ZM18 16C18 16.5523 17.5523 17 17 17V17C16.4477 17 16 16.5523 16 16V16C16 15.4477 16.4477 15 17 15V15C17.5523 15 18 15.4477 18 16V16ZM18 12C18 12.5523 17.5523 13 17 13V13C16.4477 13 16 12.5523 16 12V12C16 11.4477 16.4477 11 17 11V11C17.5523 11 18 11.4477 18 12V12ZM18 8C18 8.55228 17.5523 9 17 9V9C16.4477 9 16 8.55228 16 8V8C16 7.44772 16.4477 7 17 7V7C17.5523 7 18 7.44772 18 8V8Z" fill="#ffffff"/>
</g>
<defs>
<clipPath id="clip0_3_202">
<rect width="24" height="24" fill="white"/>
</clipPath>
</defs>
</svg>
